<svg id="Layer_1" enable-background="new 0 0 100 100" viewBox="0 0 100 100" xmlns="http://www.w3.org/2000/svg" xmlns:xlink="http://www.w3.org/1999/xlink"><linearGradient id="SVGID_1_" gradientUnits="userSpaceOnUse" x1="-8.139" x2="96.987" y1="3.122" y2="107.223"><stop offset="0" stop-color="#15ffff"/><stop offset=".0849345" stop-color="#14f6fd"/><stop offset=".2220335" stop-color="#13def7"/><stop offset=".3941942" stop-color="#10b8ed"/><stop offset=".5946217" stop-color="#0c82e0"/><stop offset=".8159605" stop-color="#073ecf"/><stop offset="1" stop-color="#0300bf"/></linearGradient><path d="m77.3685532 43.1365242h-2.1418686v-15.4098377c0-13.9098912-11.3167954-25.2266865-25.2266846-25.2266865s-25.2266846 11.3167953-25.2266846 25.2266865v15.4098377h-2.1418667c-6.1696301 0-11.1651268 5.0061836-11.1651268 11.1651268v32.0224762c0 6.169693 4.9954967 11.1758728 11.1651268 11.1758728h54.7371063c6.1696243 0 11.165123-5.0061798 11.165123-11.1758728v-32.0224762c-.0000019-6.1589432-4.9955005-11.1651268-11.1651248-11.1651268zm-22.2662735 29.0763969v9.1050186c0 2.807312-2.2736015 5.1022797-5.1022797 5.1022797s-5.1022797-2.2949677-5.1022797-5.1022797v-9.1050186c-2.7859383-1.7079086-4.6325455-4.7820663-4.6325455-8.2724762 0-5.3691292 4.3656921-9.7241402 9.7348251-9.7241402s9.7348251 4.355011 9.7348251 9.7241402c.0000001 3.4904099-1.8466071 6.5645676-4.6325453 8.2724762zm8.9537429-29.0763969h-28.1120452v-15.4098377c0-7.7507515 6.3052711-14.0560217 14.0560226-14.0560217s14.0560226 6.3052702 14.0560226 14.0560217z" fill="url(#SVGID_1_)"/></svg>