<?xml version="1.0" encoding="UTF-8" standalone="no"?>
<svg
   version="1.1"
   width="512"
   height="512"
   x="0"
   y="0"
   viewBox="0 0 100 100"
   style="enable-background:new 0 0 512 512"
   xml:space="preserve"
   class=""
   id="svg21"
   sodipodi:docname="shield.svg"
   inkscape:version="1.2.1 (9c6d41e410, 2022-07-14)"
   xmlns:inkscape="http://www.inkscape.org/namespaces/inkscape"
   xmlns:sodipodi="http://sodipodi.sourceforge.net/DTD/sodipodi-0.dtd"
   xmlns="http://www.w3.org/2000/svg"
   xmlns:svg="http://www.w3.org/2000/svg"><defs
     id="defs25" /><sodipodi:namedview
     id="namedview23"
     pagecolor="#ffffff"
     bordercolor="#000000"
     borderopacity="0.25"
     inkscape:showpageshadow="2"
     inkscape:pageopacity="0.0"
     inkscape:pagecheckerboard="0"
     inkscape:deskcolor="#d1d1d1"
     showgrid="false"
     inkscape:zoom="1.9492188"
     inkscape:cx="202.38878"
     inkscape:cy="224.4489"
     inkscape:window-width="2560"
     inkscape:window-height="1351"
     inkscape:window-x="1911"
     inkscape:window-y="-9"
     inkscape:window-maximized="1"
     inkscape:current-layer="svg21" /><g
     id="g19"
     transform="translate(0,4.4315756e-4)"><linearGradient
       id="a"
       x1="1.5829999"
       x2="106.708"
       y1="-6.6950002"
       y2="97.404999"
       gradientUnits="userSpaceOnUse"><stop
         stop-opacity="1"
         stop-color="#47ffff"
         offset="0"
         id="stop2" /><stop
         stop-opacity="1"
         stop-color="#7afbff"
         offset="0.085"
         id="stop4" /><stop
         stop-opacity="1"
         stop-color="#13def7"
         offset="0.222"
         id="stop6" /><stop
         stop-opacity="1"
         stop-color="#10b8ed"
         offset="0.36959870093080965"
         id="stop8" /><stop
         stop-opacity="1"
         stop-color="#0c82e0"
         offset="0.595"
         id="stop10" /><stop
         stop-opacity="1"
         stop-color="#0b4af1"
         offset="0.816"
         id="stop12" /><stop
         stop-opacity="1"
         stop-color="#0400c9"
         offset="1"
         id="stop14" /></linearGradient><path
       fill="url(#a)"
       d="m 94.022,20.934 a 5.33,5.33 0 0 0 -3.433,-4.07 L 51.818,2.817 a 5.317,5.317 0 0 0 -3.622,0 L 9.411,16.864 a 5.33,5.33 0 0 0 -3.433,4.07 68.919,68.919 0 0 0 -1.07,12.133 c 0,28.983 17.865,53.8 43.175,64.059 a 5.138,5.138 0 0 0 3.849,0 c 25.309,-10.259 43.16,-35.076 43.16,-64.06 0,-4.142 -0.366,-8.194 -1.07,-12.132 z"
       opacity="1"
       data-original="url(#a)"
       class=""
       id="path17"
       style="fill:url(#a)" /></g></svg>
