<?xml version="1.0" encoding="UTF-8" standalone="no"?>
<svg
   version="1.1"
   width="512"
   height="512"
   x="0"
   y="0"
   viewBox="0 0 100 100"
   xml:space="preserve"
   class=""
   id="svg21"
   xmlns="http://www.w3.org/2000/svg"
   xmlns:svg="http://www.w3.org/2000/svg"><defs
     id="defs25" /><g
     id="g19"
     transform="translate(0,4.4315756e-4)"><linearGradient
       id="a"
       x1="1.5829999"
       x2="106.708"
       y1="-6.6950002"
       y2="97.404999"
       gradientUnits="userSpaceOnUse"><stop
         stop-opacity="1"
         stop-color="#47ffff"
         offset="0"
         id="stop2" /><stop
         stop-opacity="1"
         stop-color="#7afbff"
         offset="0.085"
         id="stop4" /><stop
         stop-opacity="1"
         stop-color="#13def7"
         offset="0.222"
         id="stop6" /><stop
         stop-opacity="1"
         stop-color="#10b8ed"
         offset="0.36959870093080965"
         id="stop8" /><stop
         stop-opacity="1"
         stop-color="#0c82e0"
         offset="0.595"
         id="stop10" /><stop
         stop-opacity="1"
         stop-color="#0b4af1"
         offset="0.816"
         id="stop12" /><stop
         stop-opacity="1"
         stop-color="#0400c9"
         offset="1"
         id="stop14" /></linearGradient><path
       fill="url(#a)"
       d="m 94.022,20.934 a 5.33,5.33 0 0 0 -3.433,-4.07 L 51.818,2.817 a 5.317,5.317 0 0 0 -3.622,0 L 9.411,16.864 a 5.33,5.33 0 0 0 -3.433,4.07 68.919,68.919 0 0 0 -1.07,12.133 c 0,28.983 17.865,53.8 43.175,64.059 a 5.138,5.138 0 0 0 3.849,0 c 25.309,-10.259 43.16,-35.076 43.16,-64.06 0,-4.142 -0.366,-8.194 -1.07,-12.132 z"
       opacity="1"
       data-original="url(#a)"
       class=""
       id="path17"
       style="fill:url(#a)" /></g><path
     d="m 65.095816,43.290748 h -1.677313 v -6.709252 c 0,-7.400304 -6.018199,-13.418503 -13.418503,-13.418503 -7.400304,0 -13.418504,6.018199 -13.418504,13.418503 v 6.709252 h -1.677312 a 5.0386482,5.0386482 0 0 0 -5.031939,5.031939 v 23.482381 c 0,2.775395 2.25878,5.031939 5.031939,5.031939 h 30.191632 c 2.773158,0 5.031939,-2.256544 5.031939,-5.031939 V 48.322687 c 0,-2.775394 -2.258781,-5.031939 -5.031939,-5.031939 z M 41.05433,36.581496 c 0,-4.933537 4.012132,-8.945669 8.94567,-8.945669 4.933537,0 8.945669,4.012132 8.945669,8.945669 v 6.709252 H 41.05433 Z m 11.182088,23.978866 v 5.094559 a 2.236418,2.236418 0 1 1 -4.472836,0 v -5.094559 c -1.330668,-0.776037 -2.236417,-2.202871 -2.236417,-3.851111 0,-2.466767 2.006067,-4.472834 4.472834,-4.472834 2.466769,0 4.472835,2.006067 4.472835,4.472834 0,1.64824 -0.905749,3.075074 -2.236416,3.851111 z"
     fill="#ffffff"
     opacity="1"
     data-original="#000000"
     id="path1181"
     style="stroke-width:2.23642" /></svg>
