<svg viewBox="0 0 512 512" xmlns="http://www.w3.org/2000/svg" fill-rule="evenodd" clip-rule="evenodd" stroke-linejoin="round" stroke-miterlimit="2"><g fill-rule="nonzero"><path d="M297.973 234.186c0 16.827-9.934 31.28-24.2 37.973v29.894c0 9.8-7.934 17.733-17.774 17.733-9.826 0-17.72-7.933-17.72-17.733v-29.894c-14.306-6.693-24.186-21.146-24.186-37.973 0-23.186 18.773-41.96 41.906-41.96 23.147 0 41.974 18.774 41.974 41.96zM351.426 342zM374.24 306.24c3.892-9.227 6.706-18.774 8.372-28.467-1.626 9.733-4.426 19.24-8.373 28.466zM384.506 255.96c0 1.426-.04 2.893-.094 4.32-.093 3.893-.426 7.8-.946 11.64.48-3.947.8-7.84.906-11.787.094-1.374.134-2.747.134-4.174z" fill="#e6e6e6"/><path d="M311.8 71.8c0 1.04-.054 2.04-.107 3.093 0 .52-.04 1.04-.134 1.56-.053 1.094-.2 2.147-.333 3.24a38.322 38.322 0 01-.573 3.32c0 .387-.147.72-.24 1a31.809 31.809 0 01-.707 2.853c-.333 1.374-.813 2.707-1.293 3.987-.28.907-.654 1.76-.987 2.613-.2.48-.387.907-.573 1.294-.48 1.04-.947 2.04-1.48 2.986-.52 1-1.094 2-1.654 2.947a80.4 80.4 0 01-3 4.427 57.42 57.42 0 01-4.04 4.8c-.853.893-1.706 1.8-2.613 2.613-.947.853-1.853 1.707-2.853 2.467a55.985 55.985 0 01-9.36 6.226h-.054c-14.68-9.413-30.12-17.013-46.146-22.906a249.575 249.575 0 00-16.107-5.28c-2.76-.8-5.466-1.52-8.213-2.187-37.84-9.453-77.52-9.546-115.44-.373-3.093.76-6.227 1.613-9.32 2.466A295.529 295.529 0 0077.36 95.8a205.64 205.64 0 018.933-9.507c1.613-1.573 3.173-3.093 4.747-4.613 2.906-2.747 5.8-5.413 8.84-7.933 1.573-1.374 3.133-2.654 4.706-3.987a201.775 201.775 0 019.027-6.987c.187-.146.333-.24.48-.386 1.667-1.134 3.28-2.374 4.893-3.467 11.12-7.747 22.76-14.493 34.787-20.147 3.427-1.613 6.893-3.093 10.413-4.56 1.8-.76 3.654-1.48 5.507-2.186 1.76-.72 3.56-1.334 5.32-2 1.813-.614 3.667-1.24 5.467-1.854 1.813-.613 3.666-1.186 5.426-1.76 1.8-.52 3.654-1.04 5.454-1.573a245.589 245.589 0 0122.24-5.08c1.866-.333 3.72-.613 5.613-.907 11.213-1.76 22.533-2.653 33.893-2.8.987 0 1.947-.053 2.893-.053.947 0 1.947.053 2.894.053 29.52 1.467 52.946 25.854 52.906 55.747z" fill="#fff"/><path d="M22.185 4.185c0 .078-.004.153-.008.232a.66.66 0 01-.01.117c-.004.082-.015.161-.025.243a2.874 2.874 0 01-.043.249c0 .029-.011.054-.018.075a2.386 2.386 0 01-.053.214 2.611 2.611 0 01-.097.299c-.021.068-.049.132-.074.196a3.114 3.114 0 01-.154.321c-.039.075-.082.15-.124.221a4.306 4.306 0 01-.528.692c-.064.067-.128.135-.196.196-.071.064-.139.128-.214.185a4.199 4.199 0 01-.702.467h-.004a17.74 17.74 0 00-5.285-2.278 18.148 18.148 0 00-9.357.157c-.232.068-.463.139-.691.214a15.423 15.423 0 011.026-1.059c.218-.206.435-.406.663-.595.118-.103.235-.199.353-.299.221-.182.449-.357.677-.524.014-.011.025-.018.036-.029.125-.085.246-.178.367-.26a17.861 17.861 0 012.609-1.511 18.81 18.81 0 011.194-.506c.132-.054.267-.1.399-.15l.41-.139c.136-.046.275-.089.407-.132.135-.039.274-.078.409-.118A18.42 18.42 0 0114.82.282c.14-.025.279-.046.421-.068.841-.132 1.69-.199 2.542-.21.074 0 .146-.004.217-.004.071 0 .146.004.217.004a4.178 4.178 0 013.968 4.181z" fill="url(#prefix___Linear1)" transform="translate(16 16) scale(13.3333)"/><path d="M495.999 253.106v5.8c-.147 11.36-1.04 22.667-2.8 33.88-.24 1.907-.574 3.76-.907 5.613-1.333 7.454-3 14.867-5.08 22.24-.533 1.8-1 3.654-1.573 5.467-.574 1.76-1.147 3.613-1.76 5.413-.574 1.854-1.24 3.667-1.853 5.467-.667 1.76-1.28 3.56-2 5.32a182.712 182.712 0 01-2.187 5.52 206.264 206.264 0 01-4.56 10.4 234.579 234.579 0 01-20.147 34.786c-1.093 1.627-2.28 3.24-3.466 4.907-.147.133-.24.28-.334.467-2.28 3-4.613 6.08-7.04 9.026-1.333 1.574-2.613 3.147-3.946 4.707-2.56 3.04-5.227 5.947-7.974 8.84-1.52 1.573-3.053 3.133-4.613 4.76-27.373 27.373-59.787 46.813-94.2 58.16 56.133-62.44 73.76-147.226 52.893-223.6 0-.04-.04-.093-.04-.146.094-1.374.147-2.747.147-4.174 0-30.8 24.947-55.746 55.747-55.746 29.84-.053 54.213 23.386 55.693 52.893z" fill="#fff"/><path d="M36 17.783v.435c-.011.852-.078 1.7-.21 2.541-.018.143-.043.282-.068.421-.1.559-.225 1.115-.381 1.668-.04.135-.075.274-.118.41-.043.132-.086.271-.132.406-.043.139-.093.275-.139.41-.05.132-.096.267-.15.399-.053.139-.107.278-.164.414a17.593 17.593 0 01-1.853 3.389c-.082.122-.171.243-.26.368a.112.112 0 00-.025.035c-.171.225-.346.456-.528.677-.1.118-.196.236-.296.353-.192.228-.392.446-.598.663l-.346.357a17.914 17.914 0 01-7.065 4.362c4.21-4.683 5.532-11.042 3.967-16.77 0-.003-.003-.007-.003-.011.007-.103.011-.206.011-.313a4.18 4.18 0 014.181-4.181A4.176 4.176 0 0136 17.783z" fill="url(#prefix___Linear2)" transform="translate(16 16) scale(13.3333)"/><path d="M331.52 483.879c-83.414 27.52-178.88 8.133-245.227-58.16-90.626-90.64-93.626-235.72-8.933-329.92 3.04-1 6.133-1.946 9.213-2.853 3.093-.853 6.227-1.706 9.32-2.466 37.92-9.227 77.6-9.133 115.44.373 2.747.667 5.466 1.387 8.213 2.187a249.944 249.944 0 0116.12 5.28c16.013 5.893 31.453 13.493 46.147 22.906-.96.52-1.96 1-2.947 1.467-1 .387-2 .813-3 1.187-1 .386-2.04.773-3.093 1.093-.04 0-.094 0-.134.053a56.598 56.598 0 01-13.12 2.374 73.71 73.71 0 01-3.466.093c-32.894 0-65.773 12.547-90.867 37.64-50.146 50.187-50.186 131.506 0 181.693 50.187 50.186 131.547 50.133 181.68 0 1.573-1.573 3.093-3.133 4.56-4.8 2.76-3.04 5.333-6.187 7.746-9.453a274.972 274.972 0 003.574-5.04c1.133-1.667 2.226-3.427 3.28-5.134 1.04-1.76 2.04-3.52 2.986-5.28 1-1.8 1.907-3.613 2.76-5.413.854-1.813 1.707-3.613 2.467-5.467a129.11 129.11 0 008.373-28.466c.32-1.947.614-3.894.854-5.854.466-3.933.8-7.84.893-11.773 0 .04.053.093.053.133 20.867 76.374 3.227 161.16-52.893 223.6z" fill="#6d4aff"/><path d="M23.664 35.091c-6.256 2.064-13.416.61-18.392-4.362-6.797-6.798-7.022-17.679-.67-24.744.228-.075.46-.146.691-.214a18.048 18.048 0 0111.182.403 17.795 17.795 0 013.461 1.718 4.543 4.543 0 01-.221.11c-.075.029-.15.061-.225.089a3.339 3.339 0 01-.232.082c-.003 0-.007 0-.01.004a4.245 4.245 0 01-1.244.185 9.607 9.607 0 00-6.815 2.823c-3.761 3.764-3.764 9.863 0 13.627 3.764 3.764 9.866 3.76 13.626 0a9.074 9.074 0 00.923-1.069 10.431 10.431 0 00.514-.763 11.325 11.325 0 00.431-.802c.064-.136.128-.271.185-.41a9.683 9.683 0 00.692-2.574c.035-.295.06-.588.067-.883 0 .003.004.007.004.01 1.565 5.728.242 12.087-3.967 16.77z" fill="url(#prefix___Radial3)" transform="translate(16 16) scale(13.3333)"/><path d="M297.973 234.186c0 16.827-9.934 31.28-24.2 37.973v29.894c0 9.8-7.934 17.733-17.774 17.733-9.826 0-17.72-7.933-17.72-17.733v-29.894c-14.306-6.693-24.186-21.146-24.186-37.973 0-23.186 18.773-41.96 41.906-41.96 23.147 0 41.974 18.774 41.974 41.96z" fill="#be3232"/><path d="M297.973 234.186c0 16.827-9.934 31.28-24.2 37.973v29.894c0 9.8-7.934 17.733-17.774 17.733-9.826 0-17.72-7.933-17.72-17.733v-29.894c-14.306-6.693-24.186-21.146-24.186-37.973 0-23.186 18.773-41.96 41.906-41.96 23.147 0 41.974 18.774 41.974 41.96z" fill="#8f69ff"/></g><defs><linearGradient id="prefix___Linear1" x1="0" y1="0" x2="1" y2="0" gradientUnits="userSpaceOnUse" gradientTransform="rotate(23.229 2.227 20.08) scale(16.41184)"><stop offset="0" stop-color="#6d4aff" stop-opacity=".73"/><stop offset="1" stop-color="#6d4aff" stop-opacity=".36"/></linearGradient><linearGradient id="prefix___Linear2" x1="0" y1="0" x2="1" y2="0" gradientUnits="userSpaceOnUse" gradientTransform="scale(23.0102) rotate(64.24 -.179 1.075)"><stop offset="0" stop-color="#6d4aff" stop-opacity=".5"/><stop offset=".48" stop-color="#6d4aff" stop-opacity=".5"/><stop offset=".73" stop-color="#e6ad32" stop-opacity=".5"/><stop offset=".9" stop-color="#f2fb00" stop-opacity=".5"/><stop offset="1" stop-color="#f2fb00" stop-opacity=".5"/></linearGradient><radialGradient id="prefix___Radial3" cx="0" cy="0" r="1" gradientUnits="userSpaceOnUse" gradientTransform="matrix(-12.2337 27.3514 -29.6444 -13.2593 18.327 10.678)"><stop offset="0" stop-color="#6d4aff" stop-opacity=".85"/><stop offset=".48" stop-color="#6d4aff" stop-opacity=".85"/><stop offset=".73" stop-color="#e6ad32" stop-opacity=".85"/><stop offset=".9" stop-color="#f2fb00" stop-opacity=".85"/><stop offset="1" stop-color="#f2fb00" stop-opacity=".85"/></radialGradient></defs></svg>