<svg xmlns="http://www.w3.org/2000/svg" version="1.1" xmlns:xlink="http://www.w3.org/1999/xlink" width="512" height="512" x="0" y="0" viewBox="0 0 512 512" style="enable-background:new 0 0 512 512" xml:space="preserve" class=""><g><linearGradient id="a" x1="82.897" x2="429.103" y1="429.103" y2="82.897" gradientUnits="userSpaceOnUse"><stop offset="0" stop-color="#1751ff"></stop><stop offset="1" stop-color="#5cc5ff"></stop></linearGradient><path fill="url(#a)" fill-rule="evenodd" d="M256 11C121.059 11 11 121.059 11 256s110.058 245 245 245 245-110.058 245-245S390.941 11 256 11zm-88.249 339.9c-9.549-8.819-17.726-19.057-24.313-30.427-35.542-61.574-14.367-140.597 47.212-176.147 19.495-11.263 41.156-17.112 63.126-17.307l-17.063-17.077 21.219-21.21 54.948 54.961-54.948 54.961-21.219-21.21 20.379-20.397c-17.859-.393-35.585 4.102-51.456 13.257-47.256 27.284-63.48 87.917-36.205 135.168a98.788 98.788 0 0 0 18.655 23.358l-20.335 22.068zm151.847 16.772c-19.362 11.18-41.244 16.997-63.259 17.222l17.152 17.161-21.219 21.214-54.948-54.966 54.948-54.961 21.219 21.214-20.335 20.343c17.859.34 35.719-4.142 51.411-13.209 47.256-27.279 63.524-87.917 36.249-135.168a99.397 99.397 0 0 0-19.009-23.672l20.202-22.165c9.77 8.912 18.08 19.287 24.755 30.838 35.586 61.574 14.411 140.597-47.168 176.147z" opacity="1" class=""></path></g></svg>